HIERARCHY
ROOT Hips
{
	OFFSET -0.001795 -0.223333 0.028219
	CHANNELS 6 Xposition Yposition Zposition Zrotation Yrotation Xrotation 
	JOINT LeftUpLeg
	{
		OFFSET 0.069520 -0.091406 -0.006815
		CHANNELS 3 Zrotation Yrotation Xrotation
		JOINT LeftLeg
		{
			OFFSET 0.034277 -0.375199 -0.004496
			CHANNELS 3 Zrotation Yrotation Xrotation
			JOINT LeftFoot
			{
				OFFSET -0.013596 -0.397961 -0.043693
				CHANNELS 3 Zrotation Yrotation Xrotation
				JOINT LeftToe
				{
					OFFSET 0.026358 -0.055791 0.119288
					CHANNELS 3 Zrotation Yrotation Xrotation
					End Site
					{
						OFFSET 0.000000 0.000000 0.000000
					}
				}
			}
		}
	}
	JOINT RightUpLeg
	{
		OFFSET -0.067670 -0.090522 -0.004320
		CHANNELS 3 Zrotation Yrotation Xrotation
		JOINT RightLeg
		{
			OFFSET -0.038290 -0.382569 -0.008850
			CHANNELS 3 Zrotation Yrotation Xrotation
			JOINT RightFoot
			{
				OFFSET 0.015774 -0.398415 -0.042312
				CHANNELS 3 Zrotation Yrotation Xrotation
				JOINT RightToe
				{
					OFFSET -0.025372 -0.048144 0.123348
					CHANNELS 3 Zrotation Yrotation Xrotation
					End Site
					{
						OFFSET 0.000000 0.000000 0.000000
					}
				}
			}
		}
	}
	JOINT Spine
	{
		OFFSET -0.002533 0.108963 -0.026696
		CHANNELS 3 Zrotation Yrotation Xrotation
		JOINT Spine1
		{
			OFFSET 0.005487 0.135180 0.001092
			CHANNELS 3 Zrotation Yrotation Xrotation
			JOINT Spine2
			{
				OFFSET 0.001457 0.052922 0.025425
				CHANNELS 3 Zrotation Yrotation Xrotation
				JOINT Neck
				{
					OFFSET -0.002778 0.213870 -0.042857
					CHANNELS 3 Zrotation Yrotation Xrotation
					JOINT Head
					{
						OFFSET 0.005152 0.064970 0.051349
						CHANNELS 3 Zrotation Yrotation Xrotation
						End Site
						{
							OFFSET 0.000000 0.000000 0.000000
						}
					}
				}
				JOINT LeftShoulder
				{
					OFFSET 0.078845 0.121749 -0.034090
					CHANNELS 3 Zrotation Yrotation Xrotation
					JOINT LeftArm
					{
						OFFSET 0.090977 0.030469 -0.008868
						CHANNELS 3 Zrotation Yrotation Xrotation
						JOINT LeftForeArm
						{
							OFFSET 0.259612 -0.012772 -0.027456
							CHANNELS 3 Zrotation Yrotation Xrotation
							JOINT LeftHand
							{
								OFFSET 0.249234 0.008986 -0.001171
								CHANNELS 3 Zrotation Yrotation Xrotation
								End Site
								{
									OFFSET 0.000000 0.000000 0.000000
								}
							}
						}
					}
				}
				JOINT RightShoulder
				{
					OFFSET -0.081759 0.118833 -0.038615
					CHANNELS 3 Zrotation Yrotation Xrotation
					JOINT RightArm
					{
						OFFSET -0.096012 0.032551 -0.009143
						CHANNELS 3 Zrotation Yrotation Xrotation
						JOINT RightForeArm
						{
							OFFSET -0.253742 -0.013329 -0.021401
							CHANNELS 3 Zrotation Yrotation Xrotation
							JOINT RightHand
							{
								OFFSET -0.255298 0.007772 -0.005559
								CHANNELS 3 Zrotation Yrotation Xrotation
								End Site
								{
									OFFSET 0.000000 0.000000 0.000000
								}
							}
						}
					}
				}
			}
		}
	}
}
MOTION
Frames: 10
Frame Time: 0.050000
0.000000 0.928865 0.000000 -0.524601 -17.382871 1.144525 9.755661 0.337738 -4.302689 -2.815032 0.639096 10.112012 5.096046 11.122371 12.611835 0.000000 0.000000 0.000000 -3.345251 0.335239 -2.114764 3.696112 -0.113215 5.647664 -4.015114 -10.699889 2.740913 0.000000 0.000000 0.000000 0.829499 -0.288641 6.755355 -5.470923 2.834820 1.628627 4.265838 -0.229253 7.892486 0.747571 -0.315482 -17.610247 0.000000 0.000000 0.000000 -37.163906 -4.335205 4.604228 -45.435022 -6.034957 -5.020877 -1.077328 -26.552156 1.708061 0.000000 0.000000 0.000000 34.342292 9.767831 -1.478089 45.176031 -5.927988 -5.097848 7.957548 30.518197 2.456579 0.000000 0.000000 0.000000 
-0.020291 0.927301 -0.001771 -0.533880 -16.801055 1.032423 10.652789 0.443553 -6.937944 -1.975907 0.653420 15.758865 4.517689 10.226923 12.463720 0.000000 0.000000 0.000000 -1.585698 0.224724 -1.779792 3.113216 -0.044934 5.975045 -4.582231 -11.270470 1.350646 0.000000 0.000000 0.000000 0.905997 -0.305657 7.136965 -6.321377 3.537137 3.893412 5.298813 -1.742920 7.008164 -0.236971 0.216365 -19.170780 0.000000 0.000000 0.000000 -36.964404 -3.737696 4.667139 -44.743058 -8.776503 -4.114614 1.095452 -29.218161 1.437951 0.000000 0.000000 0.000000 33.673073 10.859539 -1.244135 44.935640 -4.722627 -4.402390 7.659672 30.966182 2.324578 0.000000 0.000000 0.000000 
-0.038382 0.928308 -0.003788 -0.755561 -15.889494 1.245523 9.519111 0.376794 -12.171493 1.895332 -0.234012 25.021697 4.376890 10.228306 14.042432 0.000000 0.000000 0.000000 -0.237449 0.188299 -2.014704 3.497840 -0.077762 6.592059 -4.941058 -12.083492 1.351793 0.000000 0.000000 0.000000 1.433271 -0.383973 8.241929 -6.051377 3.272858 3.030458 4.977457 -1.603706 7.297752 0.088910 0.060110 -18.442906 0.000000 0.000000 0.000000 -37.653988 -6.020110 6.320263 -44.390704 -10.630152 -3.485612 1.928383 -28.835139 1.161211 0.000000 0.000000 0.000000 33.259483 10.906081 -0.831231 47.275414 -4.267358 -4.708865 5.439759 30.162429 1.742344 0.000000 0.000000 0.000000 
-0.053892 0.926612 -0.004510 -0.909673 -16.305511 1.640940 9.550505 0.562067 -16.748413 2.348599 0.003935 32.891014 5.570980 12.113829 12.855510 0.000000 0.000000 0.000000 0.979466 0.206139 -2.636098 3.386191 -0.026477 7.431825 -5.048541 -11.863586 0.298472 0.000000 0.000000 0.000000 1.614019 -0.414657 8.790055 -6.764056 3.724037 3.565196 5.369243 -1.500639 6.490182 -0.100309 0.172517 -18.112140 0.000000 0.000000 0.000000 -38.009158 -6.090435 6.417986 -44.404452 -11.467021 -3.149764 1.776442 -32.267487 1.405243 0.000000 0.000000 0.000000 32.604684 12.192093 0.087458 47.819052 -3.471576 -4.423292 5.962341 29.622683 1.835715 0.000000 0.000000 0.000000 
-0.066867 0.927148 -0.003352 -0.507067 -16.997846 1.335231 7.723986 0.386311 -20.364520 1.727820 0.654670 36.894187 8.470533 16.670633 12.900118 0.000000 0.000000 0.000000 1.508028 0.164180 -2.396985 2.989250 0.053871 7.896041 -4.891696 -11.283667 -0.097199 0.000000 0.000000 0.000000 1.732299 -0.457224 10.314930 -7.196814 4.009841 3.832984 5.368364 -1.620780 5.447329 -1.063271 0.738642 -19.426304 0.000000 0.000000 0.000000 -39.355186 -6.460383 7.050578 -43.162449 -11.825547 -3.060375 2.184816 -35.730898 1.474408 0.000000 0.000000 0.000000 31.305198 12.669998 0.327420 48.022416 -1.960705 -3.777061 9.020152 30.089646 2.556459 0.000000 0.000000 0.000000 
-0.078172 0.928683 0.000616 -0.188046 -17.391575 1.505822 6.392586 0.192832 -22.631503 -2.509408 2.143774 31.620295 10.398896 19.726667 10.900832 0.000000 0.000000 0.000000 1.726193 0.157422 -2.415225 3.049195 0.064056 8.179592 -4.681060 -10.902780 0.125733 0.000000 0.000000 0.000000 0.401695 -0.327351 11.907163 -5.414784 2.769168 1.310276 4.864219 -0.289434 7.627956 -1.509422 1.104219 -21.181434 0.000000 0.000000 0.000000 -40.351173 -7.087946 7.273663 -41.814330 -13.652785 -2.516606 0.080374 -37.677297 2.248393 0.000000 0.000000 0.000000 29.991481 12.850405 1.174016 48.993302 0.224545 -3.445995 9.230532 31.205670 2.790451 0.000000 0.000000 0.000000 
-0.088614 0.930824 0.007657 0.554471 -16.778209 0.978059 3.888896 -0.425863 -23.142848 -5.557587 2.264993 21.890035 10.775247 19.787755 15.003820 0.000000 0.000000 0.000000 1.591326 0.047370 -1.281651 2.946382 0.056354 7.928698 -4.776642 -11.337350 0.623780 0.000000 0.000000 0.000000 -0.987502 -0.141732 13.913649 -4.867096 2.376613 0.114622 4.853000 -0.267906 8.547831 -1.479935 1.117592 -21.738164 0.000000 0.000000 0.000000 -39.262403 -7.928558 7.697075 -42.037837 -16.044483 -1.700018 0.594931 -38.316350 2.122097 0.000000 0.000000 0.000000 29.608321 13.655930 1.962513 49.454566 2.781747 -2.655953 7.487832 32.193204 2.466944 0.000000 0.000000 0.000000 
-0.098548 0.930893 0.018477 1.266377 -16.903713 1.173510 2.551056 -0.730755 -23.111885 -6.041223 2.040296 17.865256 8.611355 16.419920 16.837319 0.000000 0.000000 0.000000 1.809084 0.054030 -1.439249 1.968559 0.247373 8.983830 -4.917565 -11.493509 0.320078 0.000000 0.000000 0.000000 -2.500014 0.089824 14.186393 -4.496030 2.209765 0.329534 4.470467 -0.014971 8.800097 -1.990331 1.429089 -21.531274 0.000000 0.000000 0.000000 -36.734811 -8.250208 7.478279 -43.619720 -16.650735 -1.293590 0.801794 -40.282497 2.236895 0.000000 0.000000 0.000000 29.827945 14.679027 2.798088 50.440104 4.733246 -1.997745 5.632063 34.641034 2.144945 0.000000 0.000000 0.000000 
-0.110154 0.929301 0.033306 0.691805 -17.174914 1.337674 2.266488 -0.778584 -21.228222 -4.295566 1.353005 15.874862 8.528232 16.211557 17.318087 0.000000 0.000000 0.000000 2.857143 -0.005460 -1.249268 1.928632 0.365410 10.681269 -4.929680 -11.427570 0.167347 0.000000 0.000000 0.000000 -3.074007 0.163653 13.719625 -4.807031 2.268756 -0.769411 5.286354 -0.222132 10.253385 -3.379828 2.127235 -20.741856 0.000000 0.000000 0.000000 -34.565169 -8.060584 7.424609 -44.019764 -17.742616 -0.987846 -0.106065 -39.817656 2.609684 0.000000 0.000000 0.000000 30.211385 15.005349 2.773154 50.022249 5.285735 -1.777505 5.566933 36.641396 2.219156 0.000000 0.000000 0.000000 
-0.123490 0.926420 0.051326 0.524754 -16.657339 0.674290 2.109366 -0.812577 -18.346235 -3.111077 0.917272 14.752133 8.578219 16.514760 14.426214 0.000000 0.000000 0.000000 2.980325 0.130650 -2.377114 3.867257 0.420687 16.916155 -5.917547 -13.667567 0.118473 0.000000 0.000000 0.000000 -4.010201 0.274309 13.441201 -4.604560 2.181773 -0.644407 4.454975 -0.508527 10.670461 -3.789228 2.380393 -20.454280 0.000000 0.000000 0.000000 -31.674645 -8.656304 7.414371 -44.661299 -17.631244 -0.862860 0.881568 -39.444979 2.239621 0.000000 0.000000 0.000000 30.887128 14.895830 2.718283 50.121366 6.797745 -1.186328 6.727416 37.886427 2.673961 0.000000 0.000000 0.000000 
